<svg width="180" height="33" xmlns="http://www.w3.org/2000/svg" xmlns:xlink="http://www.w3.org/1999/xlink"><defs><path id="a" d="M0 32.68V0h37.296v32.68z"/></defs><g fill="none" fill-rule="evenodd"><mask id="b" fill="#fff"><use xlink:href="#a"/></mask><path d="M34.06 6.062c0 6.622-7.208 19.369-11.062 24.333-1.593-2.627-4.723-5.248-8.031-8.018-5.29-4.43-10.76-9.01-11.148-14.388-.139-1.919.286-3.424 1.263-4.474.93-.998 2.163-1.354 3.009-1.354 2.65 0 5.496 5.215 7.782 9.405 1.918 3.515 3.145 5.67 4.154 5.67.446 0 .984-.478.984-1.072 0-1.48 5.567-13.323 10.95-13.323.215 0 2.1.09 2.1 3.221M30.944.692c-3.72 0-8.316 3.625-11.037 8.667-2.461-5.275-7.528-9.36-11.673-9.36C2.886 0 0 4.23 0 8.207c0 9.896 12.875 17.928 19.792 22.242 1.449.904 2.594 1.618 3.316 2.158l.099.074.105-.065c9.004-5.593 13.984-18.445 13.984-25.19 0-4.215-2.374-6.732-6.352-6.732" fill="#F76C6F" mask="url(#b)"/><path d="M132.5 30.32c-1.093 0-2.08-.917-2.08-2.01 0-1.095.987-2.012 2.08-2.012 1.13 0 2.118.917 2.118 2.011s-.988 2.012-2.117 2.012M54.287 15.963c-1.336 0-2.527.515-3.394 1.407v5.623c0 1.92.18 5.658 3.322 5.658 2.924 0 3.248-4.595 3.248-6.515 0-3.669-.902-6.173-3.176-6.173m-.109 14.369c-5.09 0-7.545-2.641-7.545-7.373V7.048c0-.48.362-.823.83-.823h2.6c.47 0 .83.343.83.823v8.504c1.336-1.269 2.816-1.543 4.224-1.543 4.73 0 6.57 4.183 6.57 8.093 0 4.56-2.31 8.23-7.509 8.23M71.028 15.672c-2.99 0-3.351 4.52-3.351 6.436 0 1.95.324 6.538 3.28 6.538 2.954 0 3.315-4.587 3.315-6.538 0-1.917-.325-6.436-3.244-6.436m-.036 14.651c-5.225 0-7.531-3.594-7.531-8.181 0-4.553 2.306-8.147 7.531-8.147 5.19 0 7.496 3.594 7.496 8.147 0 4.587-2.307 8.181-7.496 8.181M91.062 17.35c-.865-.993-2.198-1.404-3.459-1.404-2.919 0-3.1 4.245-3.1 6.162 0 1.917.181 6.196 3.1 6.196 1.261 0 2.594-.856 3.46-1.849V17.35Zm5.298 12.973c-2.27 0-4.397-.616-4.901-2.43-1.37 1.472-3.104 2.436-4.87 2.436-4.54 0-6.301-4.525-6.301-8.255 0-3.697 1.801-8.079 6.342-8.079 1.622 0 3.1.308 4.396 1.54V7.013c0-.445.397-.787.865-.787h2.595c.468 0 .829.342.829.787v19.135c0 2.02 1.153 2.2 2.63 2.2 1.19 0 2.595-.411 3.712-.822.577.034.793.71.793 1.052a.76.76 0 0 1-.144.48c-1.514.787-3.712 1.266-5.946 1.266ZM150.308 26.147c0 2.02.972 2.166 2.213 2.184 1.91.027 4.072-1.627 4.232-2.01.074-.179.497-.324.689-.288.706.13 1.74 1.052 2.015 1.052.063 0-3.754 3.238-8.104 3.238-4.829 0-5.297-2.26-5.297-5.956v-5.511c0-2.088-.684-2.841-1.622-2.841-.968 0-2.235.756-3.068 1.725a.433.433 0 0 0-.103.284V29.48c0 .445-.396.865-.829.865h-2.594c-.433 0-.83-.42-.83-.865V14.818c0-.445.397-.826.83-.826h2.594c.433 0 .829.38.829.826v1.197c1.37-1.335 2.63-2.02 4.577-2.02 4.18 0 4.468 2.773 4.468 6.025v6.127ZM173.229 16.049c-.325 3.663-.433 6.333-.433 10.099 0 2.019 1.153 2.198 2.63 2.198 1.154 0 2.56-.41 3.676-.821.576.034.793.744.793 1.087 0 1.13-4.18 1.711-6.054 1.711-4.36 0-5.19-1.711-5.19-6.846 0-2.43.253-4.93.398-7.428h-1.586c-.396-.17-.59-.655-.59-1.065 0-.41.23-.821.59-.993h1.837l1.37-3.727c.144-.445.432-.822.865-.822h1.44c.433 0 .83.24.83.65-.144 1.507-.289 2.564-.432 3.899h3.063c.36.172.672.582.672.993 0 .41-.24.894-.672 1.065h-3.207Z" fill="#3A3A3A"/><path d="M109.568 26.435c-.865.993-2.172 1.883-3.433 1.883-2.919 0-3.126-4.313-3.126-6.23 0-1.917.324-6.436 3.28-6.436 3.099 0 3.279 3.697 3.279 5.614v5.169Zm9.58-7.408c-.335 5.392-2.61 9.321-4.51 9.321-.816 0-.818-.397-.818-2.221v-3.588c.024-2.48-.033-7.122-.033-7.122-.03-.745.13-1.433-.715-1.436l-2.877-.01c-.416 0-.616.27-.687.584-.001.007-.008.011-.015.008-.907-.377-1.956-.6-3.168-.588-5.225.054-7.532 3.594-7.532 8.147 0 3.73 1.802 8.181 6.342 8.181 1.76 0 3.449-.952 4.816-2.416.006-.006.015-.003.019.005.912 2.139 2.338 2.456 3.91 2.454 5.553-.009 7.4-8.977 7.4-8.977s-2.132-2.356-2.133-2.342Z" fill="#3A3A3A"/><path d="M123.085 18.669c.002 0 .01.002.012 0-.933-.769-.932-2.623-.83-3.758a.854.854 0 0 0-.853-.934c-.65.003-.849.052-1.913.052-.567 0-.943.55-1.049.957-.294 1.126-.273 2.174-.2 2.672.248 1.693 1.143 3.084 2.921 4.276.929.626 4.302 2.519 4.56 4.28.228 1.558-.935 2.567-2.121 2.663-.896.073-1.72-.749-2.1-1.336a.528.528 0 0 0-.775-.134l-.077.064a.833.833 0 0 0-.224 1.01c.367.733 1.273 1.853 3.388 1.853 2.666 0 5.364-2.412 4.883-5.697-.339-2.316-3.202-4.26-5.622-5.968M158.516 25.26c2.345-2.344 3.448-5.075 3.448-7.063 0-1.269-.537-2.363-1.969-2.363-1.118 0-2.597 2.09-2.597 4.765 0 1.541.397 3.221 1.118 4.66m-4.835-3.427c0-4.593 2.923-7.849 6.062-7.849 3.5 0 4.838 2.615 4.838 4.083 0 2.981-.765 5.224-4.946 8.805 1.083 1.337 3.557 1.477 4.929 1.477 1.48 0 2.96-.514 4.257-1.097.506 0 .795.343.795.754 0 .79-4.36 2.328-7.42 2.328-1.839 0-3.716-.412-5.195-1.44-2.201-1.542-3.32-4.284-3.32-7.061" fill="#3A3A3A"/></g></svg>